<?xml version="1.0" encoding="utf-8"?>
<svg version="1.1" id="Layer_1" xmlns="http://www.w3.org/2000/svg" xmlns:xlink="http://www.w3.org/1999/xlink" x="0px" y="0px"
	 viewBox="670 422 555 250" style="enable-background:new 0 0 1920 1080;" xml:space="preserve">
<style type="text/css">
	.st0{display:none;fill:#FFFFFF;}
	.st1{fill: rgb(229, 231, 235 );}
	.st2{enable-background:new    ;}
</style>
<rect class="st0" width="1920" height="1080"/>
<path class="st1" d="M672.56,588.92l16.71-3.84V448.65l-16.71-3.84v-4.74h93.06v36.59h-5.87l-5.65-28.46h-49.92v62.57l39.53-0.45
	l4.29-17.84h5.87v44.27H748l-4.29-18.3L704.18,518v67.08h51.5l6.55-30.04h5.87v38.62h-95.55v-4.74H672.56z"/>
<path class="st1" d="M782.56,589.37l15.13-3.84v-147.5l-15.13-1.13v-3.84l28.69-6.1v158.56l15.81,3.84v4.29h-44.5V589.37z"/>
<path class="st1" d="M839.71,542.39c0-35.01,14.46-55.57,39.53-55.57c23.27,0,34.33,20.55,34.33,53.31h-59.63v0.45
	c0,28.91,10.16,45.85,27.11,45.85c11.52,0,21.46-7.23,29.14-19.2l4.52,2.26c-7.91,16.94-20.78,27.11-35.24,27.11
	C854.39,596.6,839.71,576.5,839.71,542.39z M899.11,532.9c-0.23-25.07-7.68-39.75-20.33-39.75c-14.68,0-23.49,14.91-24.62,40.88
	L899.11,532.9z"/>
<path class="st1" d="M933.67,497.21l-10.39-3.16v-4.29h39.08v4.29l-14,3.61l18.52,57.37l7.68,25.75h0.45l25.52-82.9l-14-3.84v-4.29
	h34.79v4.29l-10.62,3.61l-32.98,96.67l-11.52,1.81L933.67,497.21z"/>
<path class="st1" d="M1028.54,542.39c0-35.01,14.46-55.57,39.53-55.57c23.27,0,34.33,20.55,34.33,53.31h-59.63v0.45
	c0,28.91,10.17,45.85,27.11,45.85c11.52,0,21.46-7.23,29.14-19.2l4.52,2.26c-7.91,16.94-20.78,27.11-35.24,27.11
	C1043.22,596.6,1028.54,576.5,1028.54,542.39z M1087.95,532.9c-0.23-25.07-7.68-39.75-20.33-39.75c-14.68,0-23.49,14.91-24.62,40.88
	L1087.95,532.9z"/>
<path class="st1" d="M1118.44,589.37l15.13-3.61v-88.09l-15.13-1.13v-3.84l27.56-4.97l1.13,28.23h0.45
	c7-19.43,19.43-29.14,34.33-29.14c14.23,0,23.72,8.81,23.72,29.59v68.89l15.13,4.07v4.29h-28.69v-74.99
	c0-15.13-3.84-23.04-14.23-23.04c-14.91,0-30.72,23.04-30.72,49.47v40.66l12.42,3.61v4.29h-41.11L1118.44,589.37L1118.44,589.37z"/>
<g class="st2">
	<path class="st1" d="M674.84,664.04v-7.47h1.23l1.19,6.32c1.1,0.75,3.34,1.54,5.49,1.54c3.43,0,5.71-2.11,5.71-5.8
		c0-3.82-3.03-5.58-6.19-7.38c-3.38-1.93-6.89-3.95-6.89-8.83c0-4.39,2.94-7.29,8.12-7.29c2.5,0,4.88,0.97,6.1,2.02v6.37h-1.23
		l-0.97-5.49c-0.88-0.83-2.2-1.36-3.95-1.36c-3.12,0-5.18,1.93-5.18,5.31c0,3.69,2.94,5.36,6.06,7.11c3.43,1.93,7.07,3.95,7.07,8.91
		c0,4.88-3.07,8.12-8.56,8.12C679.89,666.15,676.77,665.09,674.84,664.04z"/>
	<path class="st1" d="M737.07,653.01v10.93l3.51,0.7v0.92h-9.66v-0.92l3.25-0.75v-26.61l-3.25-0.66v-0.92h11.55
		c5.01,0,7.95,2.81,7.95,7.82c0,5.71-3.16,9.49-9.66,9.49L737.07,653.01L737.07,653.01z M741.03,651.43c4.13,0,6.41-2.81,6.41-7.73
		c0-4.08-1.71-6.54-6.28-6.54l-4.08,0.31v13.75L741.03,651.43z"/>
	<path class="st1" d="M789.47,664.65l3.25-0.75v-26.52l-3.25-0.75v-0.92h18.09v7.11h-1.14l-1.1-5.53h-9.71v12.16l7.69-0.09
		l0.83-3.47h1.14v8.61h-1.14l-0.83-3.56l-7.69-0.09v13.04h10.01l1.27-5.84h1.14v7.51h-18.58v-0.91H789.47z"/>
	<path class="st1" d="M848.33,650.91c0-9.49,4.3-15.76,11.9-15.76c3.34,0,5.18,0.92,7.38,2.02v7.03h-1.23l-1.45-6.15
		c-1.05-0.79-2.37-1.41-4.7-1.41c-5.18,0-8.7,5.01-8.7,13.88c0,8.43,3.16,14.01,8.7,14.01c1.89,0,3.91-0.66,5.31-1.93l1.27-6.02
		h1.23v7.47c-2.55,1.27-5.53,2.11-7.82,2.11C853.07,666.15,848.33,660.61,848.33,650.91z"/>
	<path class="st1" d="M907.23,635.71h20.64v8.43h-1.14l-1.19-6.76H919v26.39l3.56,0.79v1.01h-10.01v-1.01l3.56-0.79v-26.39h-6.54
		l-1.19,6.76h-1.14v-8.43H907.23z"/>
	<path class="st1" d="M962.48,664.65l2.72-0.75l9.13-28.19l2.72-0.57l8.78,28.85l2.59,0.66v0.92h-8.74v-0.92l3.03-0.75l-2.59-8.65
		h-9.97l-2.55,8.61l3.29,0.79v0.92h-8.43v-0.92H962.48z M979.65,653.67l-2.33-7.77l-2.02-7.42h-0.09l-4.57,15.19H979.65z"/>
	<path class="st1" d="M1025.51,650.91c0-9.49,4.3-15.76,11.9-15.76c3.34,0,5.18,0.92,7.38,2.02v7.03h-1.23l-1.45-6.15
		c-1.05-0.79-2.37-1.41-4.7-1.41c-5.18,0-8.7,5.01-8.7,13.88c0,8.43,3.16,14.01,8.7,14.01c1.89,0,3.91-0.66,5.31-1.93l1.27-6.02
		h1.23v7.47c-2.55,1.27-5.53,2.11-7.82,2.11C1030.25,666.15,1025.51,660.61,1025.51,650.91z"/>
	<path class="st1" d="M1085.5,664.65l3.25-0.75v-26.52l-3.25-0.75v-0.92h9.4v0.92l-3.25,0.75v26.48h10.19l1.23-7.25h1.23v8.96h-18.8
		L1085.5,664.65L1085.5,664.65z"/>
	<path class="st1" d="M1143.17,664.65l3.25-0.75v-26.52l-3.25-0.75v-0.92h18.09v7.11h-1.14l-1.1-5.53h-9.71v12.16l7.68-0.09
		l0.83-3.47h1.14v8.61h-1.14l-0.83-3.56l-7.68-0.09v13.04h10.01l1.27-5.84h1.14v7.51h-18.58v-0.91H1143.17z"/>
	<path class="st1" d="M1201.98,664.04v-7.47h1.23l1.19,6.32c1.1,0.75,3.34,1.54,5.49,1.54c3.43,0,5.71-2.11,5.71-5.8
		c0-3.82-3.03-5.58-6.19-7.38c-3.38-1.93-6.89-3.95-6.89-8.83c0-4.39,2.94-7.29,8.12-7.29c2.5,0,4.87,0.97,6.1,2.02v6.37h-1.23
		l-0.97-5.49c-0.88-0.83-2.2-1.36-3.95-1.36c-3.12,0-5.18,1.93-5.18,5.31c0,3.69,2.94,5.36,6.06,7.11c3.43,1.93,7.07,3.95,7.07,8.91
		c0,4.88-3.07,8.12-8.56,8.12C1207.03,666.15,1203.91,665.09,1201.98,664.04z"/>
</g>
</svg>
