<?xml version="1.0" standalone="no"?>
<!DOCTYPE svg PUBLIC "-//W3C//DTD SVG 20010904//EN"
 "http://www.w3.org/TR/2001/REC-SVG-20010904/DTD/svg10.dtd">
<svg version="1.0" xmlns="http://www.w3.org/2000/svg"
 width="700.000000pt" height="700.000000pt" viewBox="0 0 700.000000 700.000000"
 preserveAspectRatio="xMidYMid meet">
<metadata>
Created by potrace 1.14, written by Peter Selinger 2001-2017
</metadata>
<g transform="translate(0.000000,700.000000) scale(0.100000,-0.100000)"
fill="#000000" stroke="none">
<path d="M3030 6345 c-248 -357 -299 -430 -307 -440 -4 -5 -21 -30 -38 -55
-16 -25 -78 -114 -137 -198 -60 -84 -108 -157 -108 -162 0 -5 -4 -10 -8 -12
-5 -1 -66 -85 -135 -186 l-127 -182 0 -2310 0 -2310 490 0 490 0 0 3010 c0
1656 -1 3010 -3 3010 -1 0 -54 -74 -117 -165z"/>
<path d="M4787 6458 c-19 -29 -59 -87 -88 -128 -86 -124 -128 -184 -295 -425
-88 -126 -186 -266 -218 -310 -31 -44 -59 -88 -63 -97 -3 -10 -8 -18 -12 -18
-4 0 -15 -15 -26 -32 -10 -18 -23 -37 -28 -43 -4 -5 -53 -74 -108 -152 l-99
-142 0 -2311 0 -2310 490 0 490 0 0 3010 c0 1656 -2 3010 -4 3010 -2 0 -19
-24 -39 -52z"/>
</g>
</svg>
