<?xml version="1.0" standalone="no"?>
<!DOCTYPE svg PUBLIC "-//W3C//DTD SVG 20010904//EN"
 "http://www.w3.org/TR/2001/REC-SVG-20010904/DTD/svg10.dtd">
<svg version="1.0" xmlns="http://www.w3.org/2000/svg"
 width="700.000000pt" height="700.000000pt" viewBox="0 0 700.000000 700.000000"
 preserveAspectRatio="xMidYMid meet">
<metadata>
Created by potrace 1.14, written by Peter Selinger 2001-2017
</metadata>
<g transform="translate(0.000000,700.000000) scale(0.100000,-0.100000)"
fill="#000000" stroke="none">
<path d="M3140 6303 c-79 -115 -298 -430 -487 -700 l-343 -493 0 -2310 0
-2310 490 0 490 0 0 3010 c0 1656 -1 3010 -3 3010 -1 0 -68 -93 -147 -207z"/>
<path d="M4680 6303 c-79 -115 -298 -430 -487 -700 l-343 -493 0 -2310 0
-2310 490 0 490 0 0 3010 c0 1656 -1 3010 -3 3010 -1 0 -68 -93 -147 -207z"/>
</g>
</svg>
